<?xml version="1.0" encoding="UTF-8" standalone="no"?>
<!-- Created with Inkscape (http://www.inkscape.org/) -->

<svg
   width="520"
   height="90"
   viewBox="0 0 137.58415 23.812515"
   version="1.1"
   id="svg328"
   inkscape:version="1.2.1 (9c6d41e410, 2022-07-14)"
   sodipodi:docname="logo-text.svg"
   xmlns:inkscape="http://www.inkscape.org/namespaces/inkscape"
   xmlns:sodipodi="http://sodipodi.sourceforge.net/DTD/sodipodi-0.dtd"
   xmlns="http://www.w3.org/2000/svg"
   xmlns:svg="http://www.w3.org/2000/svg">
  <sodipodi:namedview
     id="namedview330"
     pagecolor="#ffffff"
     bordercolor="#000000"
     borderopacity="0.25"
     inkscape:showpageshadow="2"
     inkscape:pageopacity="0.0"
     inkscape:pagecheckerboard="0"
     inkscape:deskcolor="#d1d1d1"
     inkscape:document-units="mm"
     showgrid="false"
     inkscape:zoom="0.73851712"
     inkscape:cx="164.51887"
     inkscape:cy="561.25984"
     inkscape:window-width="1392"
     inkscape:window-height="1032"
     inkscape:window-x="655"
     inkscape:window-y="45"
     inkscape:window-maximized="0"
     inkscape:current-layer="layer1" />
  <defs
     id="defs325" />
  <g
     inkscape:label="Layer 1"
     inkscape:groupmode="layer"
     id="layer1">
    <g
       aria-label="Hwan'Story"
       transform="matrix(0.09600466,0,0,0.09600466,-25.112042,-35.941774)"
       id="text115-6-5-7-3"
       style="font-size:266.667px;font-family:Changa;-inkscape-font-specification:Changa;white-space:pre;shape-inside:url(#rect117-1-2-6-3);display:inline;fill:#333d79"
       inkscape:highlight-color="#eee53b">
      <path
         d="m 338.11972,561.19288 h -46.9334 V 394.52601 h 46.9334 z m 46.93339,-166.66687 h 46.93339 v 166.66687 h -46.93339 z m 4.26667,100.80012 h -55.46674 v -34.40004 h 55.46674 z"
         style="font-weight:bold;-inkscape-font-specification:'Changa Bold';text-align:center;text-anchor:middle"
         id="path9253" />
      <path
         d="m 564.52018,561.19288 -27.4667,-133.33349 h 34.40004 l 18.13336,92.53344 h 2.66667 l 16.00002,-92.53344 h 45.86672 l -26.93337,133.33349 z m -88.53344,0 -26.93337,-133.33349 h 45.86673 l 16.00002,92.53344 h 2.66667 l 17.86668,-92.53344 h 34.66671 l -27.73336,133.33349 z"
         style="font-weight:bold;-inkscape-font-specification:'Changa Bold';text-align:center;text-anchor:middle"
         id="path9255" />
      <path
         d="m 708.78729,564.92622 q -23.73336,0 -34.66671,-10.40001 -10.66668,-10.66668 -10.66668,-33.60004 0,-12.53335 3.46667,-20.80003 3.73334,-8.53334 11.73335,-13.60002 8.26668,-5.06667 22.13336,-7.20001 14.13335,-2.13333 34.93338,-2.13333 h 15.20002 v 24.53336 h -25.0667 q -10.93335,0 -15.20002,2.66667 -4.00001,2.4 -4.00001,9.33335 v 18.93335 h 17.06669 q 10.93335,0 14.93335,-2.4 4.26668,-2.4 4.26668,-9.06668 v -60.80007 q -5.60001,-1.6 -16.80002,-1.6 -11.46669,0 -24.2667,1.6 -12.53335,1.6 -26.6667,5.33334 l -5.60001,-32.80004 q 9.33335,-2.93334 19.46669,-4.80001 10.13335,-2.13333 20.80003,-2.93333 10.93335,-1.06667 21.60003,-1.06667 20.53335,0 33.33337,4.8 12.80001,4.53334 18.93336,14.40002 6.13334,9.60001 6.13334,25.33336 v 92.53345 h -23.20003 l -12.00002,-13.33335 q -9.86668,8.26668 -21.60002,12.80002 -11.46668,4.26667 -24.2667,4.26667 z"
         style="font-weight:bold;-inkscape-font-specification:'Changa Bold';text-align:center;text-anchor:middle"
         id="path9257" />
      <path
         d="M 820.25395,561.19288 V 427.85939 h 23.20003 l 11.73335,13.33334 q 11.46668,-8.53334 24.53336,-12.80001 13.06668,-4.26667 28.00004,-4.26667 18.93335,0 29.0667,7.73334 10.40001,7.46668 10.40001,21.06669 v 108.2668 h -46.93339 v -98.40012 h -19.73336 q -7.46667,0 -10.40001,2.13334 -2.93334,2.13333 -2.93334,7.20001 v 89.06677 z"
         style="font-weight:bold;-inkscape-font-specification:'Changa Bold';text-align:center;text-anchor:middle"
         id="path9259" />
      <path
         d="m 986.92085,469.45944 -12.26668,-52.80007 v -21.60002 q 0,-2.93334 1.86667,-5.06668 2.13334,-2.13333 8.00001,-2.13333 h 25.60005 q 5.8667,0 7.7333,2.13333 2.1334,2.13334 2.1334,5.06668 v 21.60002 l -12.2667,52.80007 z"
         style="font-weight:bold;-inkscape-font-specification:'Changa Bold';text-align:center;text-anchor:middle"
         id="path9261" />
      <path
         d="m 1047.7208,517.72616 q 13.0667,3.73334 26.6667,5.86668 13.6001,2.13333 26.9334,2.13333 6.9334,0 12.2667,-0.26667 5.3333,-0.26666 11.4667,-1.33333 v -22.93336 l -24.2667,-2.13334 q -16,-1.33333 -27.2001,-4.53334 -10.9333,-3.46667 -17.6,-9.33334 -6.6666,-6.13334 -9.6,-14.93335 -2.9333,-9.06668 -2.9333,-21.8667 0,-21.33336 5.8667,-33.8667 5.8666,-12.80002 19.7333,-18.40003 13.8667,-5.6 37.0667,-5.6 15.4667,0 30.6667,1.86667 15.2,1.86666 29.8667,5.33333 l -5.8666,37.60005 q -13.3334,-2.66667 -23.4667,-3.73334 -10.1334,-1.33333 -21.0667,-1.33333 -7.7334,0 -12.5334,0.26667 -4.5333,0.26666 -9.8667,1.06666 v 22.93336 l 21.8667,1.86667 q 21.3334,2.13334 34.4001,8.26668 13.3333,5.86667 19.2,17.06669 6.1333,10.93334 6.1333,28.2667 0,19.46669 -7.2,31.73337 -6.9333,12.00002 -22.1333,17.86669 -15.2,5.60001 -39.2001,5.60001 -17.8667,0 -34.4,-2.13334 -16.2667,-2.13334 -31.4667,-6.66667 z"
         style="font-weight:bold;-inkscape-font-specification:'Changa Bold';text-align:center;text-anchor:middle"
         id="path9263" />
      <path
         d="m 1235.9877,564.92622 q -15.7334,0 -23.4667,-6.40001 -7.4667,-6.66667 -7.4667,-20.53336 V 404.92602 l 46.9334,-11.73334 v 134.40016 q 4.2666,0.53333 8.2666,1.06667 4.0001,0.26667 8.2667,0.53333 l -2.1333,31.73337 q -9.0667,2.13334 -16.8,2.93334 -7.4667,1.06667 -13.6,1.06667 z m -45.6001,-106.40013 v -30.6667 h 81.3334 v 30.6667 z"
         style="font-weight:bold;-inkscape-font-specification:'Changa Bold';text-align:center;text-anchor:middle"
         id="path9265" />
      <path
         d="m 1357.321,564.92622 q -18.1333,0 -30.9334,-4.00001 -12.8,-4 -21.0667,-12.26668 -8,-8.53334 -12,-21.86669 -3.7333,-13.60002 -3.7333,-32.26671 0,-18.93335 3.7333,-32.2667 4,-13.60002 12,-21.8667 8.2667,-8.53334 21.0667,-12.26668 12.8001,-4 30.9334,-4 18.1334,0 30.9334,4 12.8,3.73334 20.8,12.26668 8.2667,8.26668 12,21.8667 3.7334,13.33335 3.7334,32.2667 0,18.66669 -3.7334,32.26671 -3.7333,13.33335 -12,21.86669 -8,8.26668 -20.8,12.26668 -12.8,4.00001 -30.9334,4.00001 z m -17.3333,-35.73338 h 23.7333 q 6.4,0 8.5334,-1.33333 2.4,-1.6 2.4,-5.86668 v -62.13341 h -23.7334 q -6.4,0 -8.8,1.60001 -2.1333,1.33333 -2.1333,5.6 z"
         style="font-weight:bold;-inkscape-font-specification:'Changa Bold';text-align:center;text-anchor:middle"
         id="path9267" />
      <path
         d="m 1473.8544,427.85939 13.3333,18.40002 q 8.8,-8.80001 18.4,-14.13335 9.6001,-5.60001 20.2667,-8.26668 l 3.2,45.60006 q -4.2666,0.53333 -10.6666,2.66667 -6.4,2.13333 -12.0001,4.8 -5.6,2.4 -8.8,4.80001 v 79.46676 h -46.9334 V 427.85939 Z"
         style="font-weight:bold;-inkscape-font-specification:'Changa Bold';text-align:center;text-anchor:middle"
         id="path9269" />
      <path
         d="m 1563.1878,549.19287 -31.2001,-121.33348 h 45.8667 l 19.2001,80.26676 h 2.6666 l 19.4667,-80.26676 h 45.8667 l -31.4667,121.33348 z m 2.1333,59.7334 q -7.4667,0 -15.4667,-1.06667 -8,-1.06666 -14.4,-2.93333 l 2.1333,-24.80003 28.8001,-3.46667 q 8,-1.06667 12.2666,-3.20001 4.2667,-2.13333 6.4,-6.93334 2.4,-4.8 4.5334,-13.33335 l 0.8,-4 h 43.2 q -5.3333,22.40002 -13.8666,35.46671 -8.2667,13.06668 -21.3334,18.66669 -12.8,5.6 -33.0667,5.6 z"
         style="font-weight:bold;-inkscape-font-specification:'Changa Bold';text-align:center;text-anchor:middle"
         id="path9271" />
    </g>
  </g>
</svg>
